<?xml version="1.0" standalone="no"?>
 <!DOCTYPE svg PUBLIC "-//W3C//DTD SVG 1.1//EN" 
 "http://www.w3.org/Graphics/SVG/1.1/DTD/svg11.dtd"> 
<svg
  xmlns:svg="http://www.w3.org/2000/svg"
  xmlns="http://www.w3.org/2000/svg"
  xmlns:xlink="http://www.w3.org/1999/xlink"
  version="1.1"
  width="4.996180cm" height="2.565400cm" viewBox="0 0 19670 10100">
<title>SVG Picture created as ProbeConverter-brd.svg date 2021/04/22 21:56:27 </title>
  <desc>Picture generated by PCBNEW </desc>
<g style="fill:#000000; fill-opacity:1;stroke:#000000; stroke-opacity:1;
stroke-linecap:round; stroke-linejoin:round;"
 transform="translate(0 0) scale(1 1)">
</g>
<g style="fill:#000000; fill-opacity:0.0; 
stroke:#000000; stroke-width:-0.000393701; stroke-opacity:1; 
stroke-linecap:round; stroke-linejoin:round;">
<g >
</g>
<g >
</g>
<g >
</g>
<g style="fill:#000000; fill-opacity:0.0; 
stroke:#000000; stroke-width:-0.000393701; stroke-opacity:1; 
stroke-linecap:round; stroke-linejoin:round;">
</g>
<g style="fill:#000000; fill-opacity:1.0; 
stroke:#000000; stroke-width:0; stroke-opacity:1; 
stroke-linecap:round; stroke-linejoin:round;">
<circle cx="5963.44" cy="1847.86" r="590.551" /> 
</g>
<g style="fill:#000000; fill-opacity:1.0; 
stroke:#000000; stroke-width:39.3701; stroke-opacity:1; 
stroke-linecap:round; stroke-linejoin:round;">
</g>
<g style="fill:#000000; fill-opacity:1.0; 
stroke:#000000; stroke-width:0; stroke-opacity:1; 
stroke-linecap:round; stroke-linejoin:round;">
<circle cx="5963.44" cy="3847.86" r="590.551" /> 
</g>
<g style="fill:#000000; fill-opacity:1.0; 
stroke:#000000; stroke-width:39.3701; stroke-opacity:1; 
stroke-linecap:round; stroke-linejoin:round;">
</g>
<g style="fill:#000000; fill-opacity:1.0; 
stroke:#000000; stroke-width:0; stroke-opacity:1; 
stroke-linecap:round; stroke-linejoin:round;">
<path style="fill:#000000; fill-opacity:1.0; 
stroke:#000000; stroke-width:0; stroke-opacity:1; 
stroke-linecap:round; stroke-linejoin:round;fill-rule:evenodd;"
d="M 6553.99,6438.41
5372.89,6438.41
5372.89,5257.31
6553.99,5257.31
Z" /> 
</g>
<g >
</g>
<g style="fill:#000000; fill-opacity:1.0; 
stroke:#000000; stroke-width:0; stroke-opacity:1; 
stroke-linecap:round; stroke-linejoin:round;">
<circle cx="15963.4" cy="2347.86" r="590.551" /> 
</g>
<g style="fill:#000000; fill-opacity:1.0; 
stroke:#000000; stroke-width:39.3701; stroke-opacity:1; 
stroke-linecap:round; stroke-linejoin:round;">
</g>
<g style="fill:#000000; fill-opacity:1.0; 
stroke:#000000; stroke-width:0; stroke-opacity:1; 
stroke-linecap:round; stroke-linejoin:round;">
<path style="fill:#000000; fill-opacity:1.0; 
stroke:#000000; stroke-width:0; stroke-opacity:1; 
stroke-linecap:round; stroke-linejoin:round;fill-rule:evenodd;"
d="M 16554,4938.41
15372.9,4938.41
15372.9,3757.31
16554,3757.31
Z" /> 
</g>
<g >
</g>
<g style="fill:#000000; fill-opacity:1.0; 
stroke:#000000; stroke-width:0; stroke-opacity:1; 
stroke-linecap:round; stroke-linejoin:round;">
<path style="fill:#000000; fill-opacity:1.0; 
stroke:#000000; stroke-width:0; stroke-opacity:1; 
stroke-linecap:round; stroke-linejoin:round;fill-rule:evenodd;"
d="M 8032.34,4182.51
8032.34,3513.22
8819.74,3513.22
8819.74,4182.51
Z" /> 
<path style="fill:#000000; fill-opacity:1.0; 
stroke:#000000; stroke-width:0; stroke-opacity:1; 
stroke-linecap:round; stroke-linejoin:round;fill-rule:evenodd;"
d="M 9607.14,4182.51
9607.14,3513.22
10394.5,3513.22
10394.5,4182.51
Z" /> 
</g>
<g >
</g>
<g style="fill:#000000; fill-opacity:1.0; 
stroke:#000000; stroke-width:0; stroke-opacity:1; 
stroke-linecap:round; stroke-linejoin:round;">
<path style="fill:#000000; fill-opacity:1.0; 
stroke:#000000; stroke-width:0; stroke-opacity:1; 
stroke-linecap:round; stroke-linejoin:round;fill-rule:evenodd;"
d="M 12930,4505.34
12930,4190.38
13284.3,4190.38
13284.3,4505.34
Z" /> 
<path style="fill:#000000; fill-opacity:1.0; 
stroke:#000000; stroke-width:0; stroke-opacity:1; 
stroke-linecap:round; stroke-linejoin:round;fill-rule:evenodd;"
d="M 12142.6,4879.36
12142.6,4564.4
12496.9,4564.4
12496.9,4879.36
Z" /> 
<path style="fill:#000000; fill-opacity:1.0; 
stroke:#000000; stroke-width:0; stroke-opacity:1; 
stroke-linecap:round; stroke-linejoin:round;fill-rule:evenodd;"
d="M 12142.6,4131.33
12142.6,3816.37
12496.9,3816.37
12496.9,4131.33
Z" /> 
</g>
<g >
</g>
<g style="fill:#000000; fill-opacity:1.0; 
stroke:#000000; stroke-width:0; stroke-opacity:1; 
stroke-linecap:round; stroke-linejoin:round;">
<circle cx="11963.4" cy="7097.86" r="590.551" /> 
</g>
<g style="fill:#000000; fill-opacity:1.0; 
stroke:#000000; stroke-width:39.3701; stroke-opacity:1; 
stroke-linecap:round; stroke-linejoin:round;">
</g>
<g style="fill:#000000; fill-opacity:1.0; 
stroke:#000000; stroke-width:0; stroke-opacity:1; 
stroke-linecap:round; stroke-linejoin:round;">
<path style="fill:#000000; fill-opacity:1.0; 
stroke:#000000; stroke-width:0; stroke-opacity:1; 
stroke-linecap:round; stroke-linejoin:round;fill-rule:evenodd;"
d="M 9372.89,7688.41
9372.89,6507.31
10554,6507.31
10554,7688.41
Z" /> 
</g>
<g >
</g>
<g >
</g>
<g style="fill:#000000; fill-opacity:1.0; 
stroke:#000000; stroke-width:0; stroke-opacity:1; 
stroke-linecap:round; stroke-linejoin:round;">
</g>
<g style="fill:#000000; fill-opacity:1.0; 
stroke:#000000; stroke-width:157.48; stroke-opacity:1; 
stroke-linecap:round; stroke-linejoin:round;">
</g>
<g style="fill:#000000; fill-opacity:0.0; 
stroke:#000000; stroke-width:157.48; stroke-opacity:1; 
stroke-linecap:round; stroke-linejoin:round;">
<path d="M7713 7097
L9963 7097
" />
<path d="M5963 6597
L5963 5847
" />
<path d="M6463 7097
L5963 6597
" />
<path d="M9963 7097
L6463 7097
" />
<path d="M5963 3847
L8426 3847
" />
<path d="M13107 4347
L15963 4347
" />
<path d="M12195 4097
L12319 3973
" />
<path d="M10000 4097
L12195 4097
" />
</g>
<g >
</g>
<g style="fill:#000000; fill-opacity:0.0; 
stroke:#000000; stroke-width:157.48; stroke-opacity:1; 
stroke-linecap:round; stroke-linejoin:round;">
<g >
</g>
<g style="fill:#000000; fill-opacity:1.0; 
stroke:#000000; stroke-width:100; stroke-opacity:1; 
stroke-linecap:round; stroke-linejoin:round;">
<path style="fill:#000000; fill-opacity:1.0; 
stroke:#000000; stroke-width:100; stroke-opacity:1; 
stroke-linecap:round; stroke-linejoin:round;fill-rule:evenodd;"
d="M 18163.4,9547.86
1513.44,9547.86
1513.44,8011.2
2833.52,8011.2
2833.52,8184.53
2867.34,8354.53
2933.67,8514.66
3029.96,8658.78
3152.53,8781.34
3296.64,8877.64
3456.78,8943.97
3626.78,8977.78
3800.11,8977.78
3970.11,8943.97
4130.24,8877.64
4274.36,8781.34
4396.92,8658.78
4493.22,8514.66
4559.55,8354.53
4593.36,8184.53
4593.36,8011.2
15083.5,8011.2
15083.5,8184.53
15117.3,8354.53
15183.7,8514.66
15280,8658.78
15402.5,8781.34
15546.6,8877.64
15706.8,8943.97
15876.8,8977.78
16050.1,8977.78
16220.1,8943.97
16380.2,8877.64
16524.4,8781.34
16646.9,8658.78
16743.2,8514.66
16809.5,8354.53
16843.4,8184.53
16843.4,8011.2
16809.5,7841.2
16743.2,7681.06
16646.9,7536.95
16524.4,7414.38
16380.2,7318.09
16220.1,7251.76
16050.1,7217.94
15876.8,7217.94
15706.8,7251.76
15546.6,7318.09
15402.5,7414.38
15280,7536.95
15183.7,7681.06
15117.3,7841.2
15083.5,8011.2
4593.36,8011.2
4559.55,7841.2
4493.22,7681.06
4396.92,7536.95
4274.36,7414.38
4130.24,7318.09
3970.11,7251.76
3800.11,7217.94
3626.78,7217.94
3456.78,7251.76
3296.64,7318.09
3152.53,7414.38
3029.96,7536.95
2933.67,7681.06
2867.34,7841.2
2833.52,8011.2
1513.44,8011.2
1513.44,5257.31
5121.68,5257.31
5121.68,6438.41
5126.51,6487.42
5140.8,6534.55
5164.02,6577.98
5195.26,6616.05
5233.33,6647.29
5276.76,6670.5
5323.88,6684.8
5372.89,6689.62
5647.74,6689.62
5658.26,6724.27
5688.78,6781.38
5729.86,6831.44
5742.41,6841.74
6219.57,7318.9
6229.86,7331.44
6279.92,7372.52
6337.03,7403.05
6399,7421.85
6447.29,7426.6
6447.29,7426.6
6463.44,7428.19
6479.59,7426.6
9121.68,7426.6
9121.68,7688.41
9126.51,7737.42
9140.8,7784.55
9164.02,7827.98
9195.26,7866.05
9233.33,7897.29
9276.76,7920.5
9323.88,7934.8
9372.89,7939.62
10554,7939.62
10603,7934.8
10650.1,7920.5
10693.6,7897.29
10731.6,7866.05
10762.9,7827.98
10786.1,7784.55
10800.4,7737.42
10805.2,7688.41
10805.2,7685.13
11446.9,7685.13
11508.3,7809.36
11655.9,7884.49
11815.2,7929.38
11980.3,7942.31
12144.7,7922.8
12302.2,7871.58
12418.6,7809.36
12480,7685.13
11963.4,7168.57
11446.9,7685.13
10805.2,7685.13
10805.2,7114.72
11119,7114.72
11138.5,7279.14
11189.7,7436.6
11251.9,7553
11376.2,7614.42
11892.7,7097.86
12034.2,7097.86
12550.7,7614.42
12674.9,7553
12750.1,7405.44
12795,7246.07
12807.9,7081
12788.4,6916.58
12737.2,6759.13
12674.9,6642.73
12550.7,6581.31
12034.2,7097.86
11892.7,7097.86
11376.2,6581.31
11251.9,6642.73
11176.8,6790.28
11131.9,6949.65
11119,7114.72
10805.2,7114.72
10805.2,6510.6
11446.9,6510.6
11963.4,7027.15
12480,6510.6
12418.6,6386.36
12271,6311.24
12111.7,6266.35
11946.6,6253.41
11782.2,6272.93
11624.7,6324.15
11508.3,6386.36
11446.9,6510.6
10805.2,6510.6
10805.2,6507.31
10800.4,6458.3
10786.1,6411.18
10762.9,6367.75
10731.6,6329.68
10693.6,6298.44
10650.1,6275.22
10603,6260.93
10554,6256.1
9372.89,6256.1
9323.88,6260.93
9276.76,6275.22
9233.33,6298.44
9195.26,6329.68
9164.02,6367.75
9140.8,6411.18
9126.51,6458.3
9121.68,6507.31
9121.68,6769.12
6599.61,6769.12
6520.11,6689.62
6553.99,6689.62
6603,6684.8
6650.13,6670.5
6693.56,6647.29
6731.63,6616.05
6762.87,6577.98
6786.08,6534.55
6800.38,6487.42
6805.2,6438.41
6805.2,5257.31
6800.38,5208.3
6786.08,5161.18
6762.87,5117.75
6731.63,5079.68
6693.56,5048.44
6650.13,5025.22
6603,5010.93
6553.99,5006.1
5372.89,5006.1
5323.88,5010.93
5276.76,5025.22
5233.33,5048.44
5195.26,5079.68
5164.02,5117.75
5140.8,5161.18
5126.51,5208.3
5121.68,5257.31
1513.44,5257.31
1513.44,4879.36
11891.4,4879.36
11896.2,4928.37
11910.5,4975.49
11933.7,5018.92
11964.9,5056.99
12003,5088.23
12046.4,5111.45
12093.6,5125.74
12142.6,5130.57
12207.2,5129.36
12269.7,5066.86
12269.7,4771.88
12369.7,4771.88
12369.7,5066.86
12432.2,5129.36
12496.9,5130.57
12545.9,5125.74
12593,5111.45
12636.5,5088.23
12674.5,5056.99
12705.8,5018.92
12729,4975.49
12743.3,4928.37
12748.1,4879.36
12746.9,4834.38
12684.4,4771.88
12369.7,4771.88
12269.7,4771.88
11955.1,4771.88
11892.6,4834.38
11891.4,4879.36
1513.44,4879.36
1513.44,3765.08
5122.89,3765.08
5122.89,3930.65
5155.19,4093.04
5218.56,4246.01
5310.54,4383.68
5427.62,4500.76
5565.29,4592.75
5718.26,4656.11
5880.66,4688.41
6046.23,4688.41
6208.62,4656.11
6361.59,4592.75
6499.26,4500.76
6616.34,4383.68
6708.33,4246.01
6737.08,4176.6
7781.13,4176.6
7781.13,4182.51
7785.96,4231.52
7800.25,4278.64
7823.47,4322.07
7854.71,4360.14
7892.78,4391.38
7936.21,4414.6
7983.33,4428.89
8032.34,4433.72
8819.74,4433.72
8868.75,4428.89
8915.88,4414.6
8959.31,4391.38
8997.37,4360.14
9028.61,4322.07
9051.83,4278.64
9066.12,4231.52
9070.95,4182.51
9070.95,3513.22
9355.93,3513.22
9355.93,4182.51
9360.76,4231.52
9375.06,4278.64
9398.27,4322.07
9429.51,4360.14
9467.58,4391.38
9511.01,4414.6
9558.13,4428.89
9607.14,4433.72
10394.5,4433.72
10443.6,4428.89
10451.1,4426.6
11932.8,4426.6
11910.5,4468.26
11896.2,4515.39
11891.4,4564.4
11892.6,4609.38
11955.1,4671.88
12269.7,4671.88
12269.7,4664
12369.7,4664
12369.7,4671.88
12684.4,4671.88
12717.7,4638.57
12721.1,4644.91
12752.3,4682.98
12790.4,4714.22
12833.8,4737.43
12881,4751.73
12930,4756.55
13284.3,4756.55
13333.3,4751.73
13380.4,4737.43
13423.9,4714.22
13461.9,4682.98
13467.2,4676.6
15121.7,4676.6
15121.7,4938.41
15126.5,4987.42
15140.8,5034.55
15164,5077.98
15195.3,5116.05
15233.3,5147.29
15276.8,5170.5
15323.9,5184.8
15372.9,5189.62
16554,5189.62
16603,5184.8
16650.1,5170.5
16693.6,5147.29
16731.6,5116.05
16762.9,5077.98
16786.1,5034.55
16800.4,4987.42
16805.2,4938.41
16805.2,3757.31
16800.4,3708.3
16786.1,3661.18
16762.9,3617.75
16731.6,3579.68
16693.6,3548.44
16650.1,3525.22
16603,3510.93
16554,3506.1
15372.9,3506.1
15323.9,3510.93
15276.8,3525.22
15233.3,3548.44
15195.3,3579.68
15164,3617.75
15140.8,3661.18
15126.5,3708.3
15121.7,3757.31
15121.7,4019.12
13467.2,4019.12
13461.9,4012.75
13423.9,3981.51
13380.4,3958.3
13333.3,3944
13284.3,3939.17
12930,3939.17
12881,3944
12833.8,3958.3
12790.4,3981.51
12752.3,4012.75
12748.1,4017.9
12748.1,3816.37
12743.3,3767.36
12729,3720.23
12705.8,3676.8
12674.5,3638.74
12636.5,3607.49
12593,3584.28
12545.9,3569.98
12496.9,3565.16
12142.6,3565.16
12093.6,3569.98
12046.4,3584.28
12003,3607.49
11964.9,3638.74
11933.7,3676.8
11910.5,3720.23
11896.2,3767.36
11896,3769.12
10645.8,3769.12
10645.8,3513.22
10640.9,3464.21
10626.6,3417.08
10603.4,3373.65
10572.2,3335.59
10534.1,3304.34
10490.7,3281.13
10443.6,3266.83
10394.5,3262.01
9607.14,3262.01
9558.13,3266.83
9511.01,3281.13
9467.58,3304.34
9429.51,3335.59
9398.27,3373.65
9375.06,3417.08
9360.76,3464.21
9355.93,3513.22
9070.95,3513.22
9066.12,3464.21
9051.83,3417.08
9028.61,3373.65
8997.37,3335.59
8959.31,3304.34
8915.88,3281.13
8868.75,3266.83
8819.74,3262.01
8032.34,3262.01
7983.33,3266.83
7936.21,3281.13
7892.78,3304.34
7854.71,3335.59
7823.47,3373.65
7800.25,3417.08
7785.96,3464.21
7781.13,3513.22
7781.13,3519.12
6737.08,3519.12
6708.33,3449.71
6616.34,3312.04
6499.26,3194.96
6361.59,3102.98
6208.62,3039.61
6046.23,3007.31
5880.66,3007.31
5718.26,3039.61
5565.29,3102.98
5427.62,3194.96
5310.54,3312.04
5218.56,3449.71
5155.19,3602.68
5122.89,3765.08
1513.44,3765.08
1513.44,2935.13
15446.9,2935.13
15508.3,3059.36
15655.9,3134.49
15815.2,3179.38
15980.3,3192.31
16144.7,3172.8
16302.2,3121.58
16418.6,3059.36
16480,2935.13
15963.4,2418.57
15446.9,2935.13
1513.44,2935.13
1513.44,2435.13
5446.89,2435.13
5508.31,2559.36
5655.86,2634.49
5815.23,2679.38
5980.3,2692.31
6144.72,2672.8
6302.18,2621.58
6418.58,2559.36
6480,2435.13
6409.59,2364.72
15119,2364.72
15138.5,2529.14
15189.7,2686.6
15251.9,2803
15376.2,2864.42
15892.7,2347.86
16034.2,2347.86
16550.7,2864.42
16674.9,2803
16750.1,2655.44
16795,2496.07
16807.9,2331
16788.4,2166.58
16737.2,2009.13
16674.9,1892.73
16550.7,1831.31
16034.2,2347.86
15892.7,2347.86
15376.2,1831.31
15251.9,1892.73
15176.8,2040.28
15131.9,2199.65
15119,2364.72
6409.59,2364.72
5963.44,1918.57
5446.89,2435.13
1513.44,2435.13
1513.44,1864.72
5118.99,1864.72
5138.51,2029.14
5189.72,2186.6
5251.94,2303
5376.18,2364.42
5892.73,1847.86
6034.15,1847.86
6550.71,2364.42
6674.94,2303
6750.06,2155.44
6794.96,1996.07
6807.89,1831
6799.54,1760.6
15446.9,1760.6
15963.4,2277.15
16480,1760.6
16418.6,1636.36
16271,1561.24
16111.7,1516.35
15946.6,1503.41
15782.2,1522.93
15624.7,1574.15
15508.3,1636.36
15446.9,1760.6
6799.54,1760.6
6788.38,1666.58
6737.16,1509.13
6674.94,1392.73
6550.71,1331.31
6034.15,1847.86
5892.73,1847.86
5376.18,1331.31
5251.94,1392.73
5176.82,1540.28
5131.93,1699.65
5118.99,1864.72
1513.44,1864.72
1513.44,1260.6
5446.89,1260.6
5963.44,1777.15
6480,1260.6
6418.58,1136.36
6271.02,1061.24
6111.65,1016.35
5946.58,1003.41
5782.16,1022.93
5624.71,1074.15
5508.31,1136.36
5446.89,1260.6
1513.44,1260.6
1513.44,647.863
18163.4,647.863
Z" /> 
</g>
</g>
</g>
<g style="fill:#FFFFFF; fill-opacity:1.0; 
stroke:#FFFFFF; stroke-width:100; stroke-opacity:1; 
stroke-linecap:round; stroke-linejoin:round;">
</g>
<g style="fill:#FFFFFF; fill-opacity:1.0; 
stroke:#FFFFFF; stroke-width:0; stroke-opacity:1; 
stroke-linecap:round; stroke-linejoin:round;">
<circle cx="3713.44" cy="8097.86" r="629.921" /> 
</g>
<g style="fill:#FFFFFF; fill-opacity:1.0; 
stroke:#FFFFFF; stroke-width:39.3701; stroke-opacity:1; 
stroke-linecap:round; stroke-linejoin:round;">
</g>
<g style="fill:#FFFFFF; fill-opacity:1.0; 
stroke:#FFFFFF; stroke-width:0; stroke-opacity:1; 
stroke-linecap:round; stroke-linejoin:round;">
<circle cx="15963.4" cy="8097.86" r="629.921" /> 
</g>
<g style="fill:#FFFFFF; fill-opacity:1.0; 
stroke:#FFFFFF; stroke-width:39.3701; stroke-opacity:1; 
stroke-linecap:round; stroke-linejoin:round;">
</g>
<g style="fill:#FFFFFF; fill-opacity:1.0; 
stroke:#FFFFFF; stroke-width:0; stroke-opacity:1; 
stroke-linecap:round; stroke-linejoin:round;">
<circle cx="5963.44" cy="1847.86" r="299.213" /> 
</g>
<g style="fill:#FFFFFF; fill-opacity:1.0; 
stroke:#FFFFFF; stroke-width:39.3701; stroke-opacity:1; 
stroke-linecap:round; stroke-linejoin:round;">
</g>
<g style="fill:#FFFFFF; fill-opacity:1.0; 
stroke:#FFFFFF; stroke-width:0; stroke-opacity:1; 
stroke-linecap:round; stroke-linejoin:round;">
<circle cx="5963.44" cy="3847.86" r="299.213" /> 
</g>
<g style="fill:#FFFFFF; fill-opacity:1.0; 
stroke:#FFFFFF; stroke-width:39.3701; stroke-opacity:1; 
stroke-linecap:round; stroke-linejoin:round;">
</g>
<g style="fill:#FFFFFF; fill-opacity:1.0; 
stroke:#FFFFFF; stroke-width:0; stroke-opacity:1; 
stroke-linecap:round; stroke-linejoin:round;">
<circle cx="5963.44" cy="5847.86" r="299.213" /> 
</g>
<g style="fill:#FFFFFF; fill-opacity:1.0; 
stroke:#FFFFFF; stroke-width:39.3701; stroke-opacity:1; 
stroke-linecap:round; stroke-linejoin:round;">
</g>
<g style="fill:#FFFFFF; fill-opacity:1.0; 
stroke:#FFFFFF; stroke-width:0; stroke-opacity:1; 
stroke-linecap:round; stroke-linejoin:round;">
<circle cx="15963.4" cy="2347.86" r="299.213" /> 
</g>
<g style="fill:#FFFFFF; fill-opacity:1.0; 
stroke:#FFFFFF; stroke-width:39.3701; stroke-opacity:1; 
stroke-linecap:round; stroke-linejoin:round;">
</g>
<g style="fill:#FFFFFF; fill-opacity:1.0; 
stroke:#FFFFFF; stroke-width:0; stroke-opacity:1; 
stroke-linecap:round; stroke-linejoin:round;">
<circle cx="15963.4" cy="4347.86" r="299.213" /> 
</g>
<g style="fill:#FFFFFF; fill-opacity:1.0; 
stroke:#FFFFFF; stroke-width:39.3701; stroke-opacity:1; 
stroke-linecap:round; stroke-linejoin:round;">
</g>
<g style="fill:#FFFFFF; fill-opacity:1.0; 
stroke:#FFFFFF; stroke-width:0; stroke-opacity:1; 
stroke-linecap:round; stroke-linejoin:round;">
<circle cx="11963.4" cy="7097.86" r="299.213" /> 
</g>
<g style="fill:#FFFFFF; fill-opacity:1.0; 
stroke:#FFFFFF; stroke-width:39.3701; stroke-opacity:1; 
stroke-linecap:round; stroke-linejoin:round;">
</g>
<g style="fill:#FFFFFF; fill-opacity:1.0; 
stroke:#FFFFFF; stroke-width:0; stroke-opacity:1; 
stroke-linecap:round; stroke-linejoin:round;">
<circle cx="9963.44" cy="7097.86" r="299.213" /> 
</g>
<g style="fill:#FFFFFF; fill-opacity:1.0; 
stroke:#FFFFFF; stroke-width:39.3701; stroke-opacity:1; 
stroke-linecap:round; stroke-linejoin:round;">
</g>
<g style="fill:#000000; fill-opacity:1.0; 
stroke:#000000; stroke-width:39.3701; stroke-opacity:1; 
stroke-linecap:round; stroke-linejoin:round;">
</g>
<g style="fill:#000000; fill-opacity:0.0; 
stroke:#000000; stroke-width:39.3701; stroke-opacity:1; 
stroke-linecap:round; stroke-linejoin:round;">
<path d="M18213 597
L18213 9597
" />
<path d="M1463 597
L18213 597
" />
<path d="M1463 9597
L1463 597
" />
<path d="M18213 9597
L1463 9597
" />
<g >
</g>
<g >
</g>
<g >
</g>
<g >
</g>
<g >
</g>
<g >
</g>
<g >
</g>
<g >
</g>
</g> 
</svg>
